<svg xmlns="http://www.w3.org/2000/svg" viewBox="0 0 42 42">
    <path fill="currentColor" d="M36.7 35a21 21 0 0 0-.4-28.4A21 21 0 0 0 21.7 0h-.4a9.3 9.3 0 0 0-.6 0h-.4A21 21 0 0 0 5.3 35a21 21 0 0 0 15 7h.4l.3.1h.7a21 21 0 0 0 15-7zM1.5 21.6h8.7c0 3 .6 6 1.7 8.9-2 .7-4 1.7-5.9 3a19.5 19.5 0 0 1-4.5-11.9zM6.5 8c1.7 1.2 3.6 2 5.6 2.8-1.2 3-1.9 6.2-2 9.5H1.6c.1-4.7 2-9 5-12.3zm34 12.3h-8.7c0-3.3-.7-6.5-2-9.5 2-.7 4-1.6 5.8-2.8 3 3.3 4.8 7.6 5 12.3zm-20.2-9.5c-2.1 0-4.2-.3-6.2-.9 1.5-3 3.6-5.7 6.2-8v9zm0 1.5v8h-8.7c.1-3.2.8-6.2 2-9 2.1.6 4.4 1 6.7 1zm1.4 0c2.3 0 4.6-.4 6.8-1 1.1 2.8 1.8 5.8 1.9 9h-8.7v-8zm0-1.5V2c2.6 2.3 4.7 5 6.2 8-2 .6-4 .9-6.2 1zm7.6-1.3c-1.4-3-3.4-5.6-5.8-7.9 4.3.6 8.1 2.5 11 5.3-1.6 1-3.4 2-5.2 2.6zm-16.6 0C11 8.8 9.1 8 7.5 6.9c2.9-2.8 6.7-4.7 11-5.3C16 4 14 6.6 12.7 9.5zm-1 12.2h8.6V29c-2.4 0-4.8.4-7 1.1-1-2.6-1.6-5.5-1.7-8.4zm8.6 8.7v9.7c-2.8-2.4-5-5.4-6.5-8.6 2.1-.7 4.3-1 6.5-1zm1.4 9.7v-9.7c2.2.1 4.4.4 6.5 1a25.3 25.3 0 0 1-6.5 8.7zm0-11.1v-7.3h8.7c0 3-.7 5.8-1.7 8.4-2.2-.7-4.6-1-7-1.1zm10.1-7.3h8.7c-.1 4.5-1.8 8.6-4.5 11.9a26.7 26.7 0 0 0-6-3c1.2-2.8 1.8-5.8 1.8-8.9zM7 34.7c1.7-1.2 3.6-2.1 5.5-2.8 1.4 3.2 3.4 6 6 8.5C14 39.8 10 37.7 7 34.6zm16.5 5.7c2.6-2.5 4.6-5.3 6-8.5 2 .7 3.8 1.6 5.5 2.7-3 3.1-7 5.2-11.5 5.8z"/>
</svg>
