<svg xmlns="http://www.w3.org/2000/svg" viewBox="0 0 217 85" fill="none">
    <path fill="#000" d="M21.3 25c-1.4 2.1-2 4.6 1.1 5.2h1c7.4 0 14.3-12.3 15-17.6 1-3.5 1-7.6-3.8-8.3L33 4.2C19.7 4.2 6 25.4 8.6 35.6c1 3.6 4 5.2 6.4 6l-.4.2C7.6 47-.8 55.4.3 64.6c.4 3.7 1.4 8.6 6 10.1.8.2 1.8.3 2.7.3 13 0 24.9-23.4 30.3-32 .3-.5 0-.9-.5-.9a1 1 0 0 0-.9.4C31.6 52.7 26 65 15.6 71.5A12.4 12.4 0 0 1 9 73.7c-4.6 0-7.5-4-7.6-9.7-.2-9.2 7.1-17.2 15.6-22h.4c1.6 0 2.2-1 2.7-1.8 0-.6-.3-.9-.9-.9-1.2.3-2.3.9-3.3 1.5-3-.3-5.4-3.6-6-5.7-.4-1.8-.2-3.8 0-5.6C12.2 19.2 21.9 5.7 34.4 5.7c4 0 3.5 4.7 3 6.8a25.4 25.4 0 0 1-10.1 15.1c-1.5 1-3 1.5-4 1.5-1.6 0-2.3-1.1-.6-3.6.4-.5 0-1-.4-1s-.6.2-1 .5z"/>
    <path fill="#000" d="M52 5C47 17.3 41 28.8 38 41.9c-.4 1.8-2.6 9.6.7 10.7h.5c2.6 0 6.3-7 7.3-9 .3-.6 0-1-.5-1a1 1 0 0 0-.7.4c-1 2-3.9 8-6.3 8.2-2-.9 1.2-12.3 1.4-13C44 26.7 48.7 16.5 53.1 5.7c.3-.5 0-1-.6-1-.2 0-.3.1-.5.3z"/>
    <path fill="#000" d="M59.5 5c-4.9 12.2-11 23.7-13.9 36.8-.4 1.8-2.6 9.6.7 10.7h.5c2.6 0 6.3-7 7.3-9 .3-.6 0-1-.5-1a1 1 0 0 0-.7.4c-1 2-3.9 8-6.3 8.2-2-.9 1.2-12.3 1.4-13 3.5-11.3 8.2-21.5 12.6-32.3.3-.5 0-1-.6-1-.2 0-.3.1-.5.3z"/>
    <path fill="#000" d="M53.3 41.8c-.3 1-.9 2.2-1 3.3-.3 3.1.4 4.3 1.6 4.3 2 0 5.4-3.6 6.8-5.7.2-.6 0-1-.6-1l-.5.2c-.8 1.2-3.2 5-5.3 5h-.6c-.6-2 .4-4 1-5.8 0-.5-.3-.8-.6-.8s-.6.1-.8.5zm3-8.9c-.9 1.3-1.4 3.1-2 4.7 0 .5.3.8.6.8s.5-.1.7-.5c.6-1.3 1-3.1 1.9-4.2.3-.5 0-1-.6-1l-.5.2z"/>
    <path fill="#000" d="M60.2 42.2c-.8.9-1 1-1.6 2.3-.5 1.2-1 3.1-.3 4.4.3.6.8 1 1.3 1 1.6 0 3.5-3.4 3.4-6.1a7 7 0 0 0 4.4.5c1-.1.8-1.4-.1-1.4l-1.9.2c-1 0-2-.2-2.8-1l-.5-1-.6-.2c-.3 0-.6.3-.6.9l.2.3-.4-.1-.5.2zm-.6 6.3c-.8-1.7.4-4.2 1.6-5.4l.2-.5a5 5 0 0 1-1.8 5.9z"/>
    <path fill="#000" d="M77 18.9c-2 4.5-4.4 9-6.5 14-4.9.3-9.8 1.3-14.4 3-.7.4-.6 1.4.2 1.4h.2c4.2-1.6 8.9-2.6 13.4-3-2.4 6.3-4 12.9-3.4 19.6 0 1.6.6 3.3 1 5 0 .4.3.6.6.6s.7-.2.6-.7c-.3-1.6-.8-3.2-1-4.8a43 43 0 0 1 3.8-19.8h2.4c4.3 0 8.7.7 12.9 2 .8 0 1.1-.7.5-1.3-4.4-1.4-9-2.2-13.4-2.2l-1.8.1c2-4.7 4.3-9.1 6.3-13.4.2-.5-.2-1-.6-1a1 1 0 0 0-.7.5zM123 52.5c1.5-3.8 3.7-7.1 5.6-10.6 7.3-12.9 14.5-24.4 25.3-34.6l-.8 1.2c-8.7 13.6-20.8 39.2-15.9 57.8.8 2.9 2.4 5.3 5.7 6.5h.5c.6 0 .8-.8 0-1.2a9.1 9.1 0 0 1-5.1-6.5c-4.2-17.7 7.6-41.7 15.5-55 1.6-2.6 3.7-4.8 5.3-7.3l.1-.2a.7.7 0 0 0-.6-1.1c-.2 0-.4 0-.6.2-1 1.3-2.6 2.3-3.9 3.5-3 2.8-5.8 5.6-8.5 8.7a153.8 153.8 0 0 0-18.2 27.3c-1.9 3.2-3.8 6.2-5.3 9.8-1.6-4.1-1.3-7.6-1.2-12.5.3-10.2.6-15.8 2-25.7l1-4.8c.3-.9 2.1-4.6 1.6-7.4-.2-.4-.4-.6-.8-.6-.2 0-.4.2-.5.4l-.2.6-.8 2-2.8 6c-2.5 5.7-3.8 7-6.5 12.5-5.8 11.8-12.2 23.1-18.6 34.6-2.8 5.1-4.8 10.4-8.7 14.7a.7.7 0 0 0-.7-.5c-.3 0-.5.2-.7.5-.1.5-.3.8-.2 1.5l.4.5.3.1.6.2c5.2-3.5 7.3-11 10.2-16.2 2-3.3 3.7-6.6 5.5-9.9 7.3-13.2 14.4-26 20.3-38.8l-.7 4.3c-1.6 9.8-2.2 15.6-2 25.8.2 3.6-.8 13 2.9 16.3.2.4.5.5.7.5.4 0 .8-.4.5-1l-.8-1.4.2-.2z"/>
    <path fill="#000" d="M148.4 40.6l-.5-.1c-4.8 0-6.8 10.7-2.6 10.7.8 0 1.7-.4 3-1.3 1.4-1 6-5.3 6.5-6.6 0-.6-.2-.8-.6-.8-.2 0-.5.1-.7.4-.3 1-6.3 6.8-7.8 6.8-2.6 0-.7-7.6 1.6-8l1 .2c.9-.1.8-1.1 0-1.3z"/>
    <path fill="#000" d="M167.5 5c-4.9 12.2-11 23.7-13.8 36.8-.4 1.8-2.6 9.6.6 10.7h.6c2.5 0 6.2-7 7.3-9 .2-.6-.1-1-.5-1a1 1 0 0 0-.8.4c-1 2-3.8 8-6.3 8.2-2-.9 1.2-12.3 1.4-13 3.5-11.3 8.3-21.5 12.6-32.3.3-.5 0-1-.5-1l-.6.3z"/>
    <path fill="#000" d="M161 43c0 2.4-2.5 4.2-1.9 7.5l.5.5h.3c2.4 0 5-6.6 7.1-7.9.3 2.2.3 6.6 2.5 6.6s5.7-4.3 6.8-6.2c.2-.6-.1-1-.5-1a1 1 0 0 0-.8.4c-.6 1.2-3.8 5.2-5.3 5.2-1.6 0-.8-5-2-6.2a.6.6 0 0 0-.5-.2h-.4c-2.8 1.4-4.4 5.1-6.3 7.4.3-2.6 1.8-4 1.8-6 0-.5-.3-.8-.7-.8-.3 0-.6.2-.6.6z"/>
    <path fill="#000" d="M184.8 18.9c-2 4.5-4.4 9-6.5 14-4.9.3-9.8 1.3-14.4 3-.8.4-.6 1.4.2 1.4h.1c4.3-1.6 9-2.6 13.5-3-2.4 6.3-4 12.9-3.5 19.6.2 1.6.6 3.3 1 5 0 .4.4.6.7.6.3 0 .6-.2.6-.7-.4-1.6-.8-3.2-1-4.8a43 43 0 0 1 3.8-19.8h2.3c4.4 0 8.7.7 13 2 .8 0 1.1-.7.4-1.3-4.3-1.4-8.9-2.2-13.4-2.2l-1.7.1c2-4.7 4.3-9.1 6.2-13.4.3-.5-.1-1-.5-1a1 1 0 0 0-.8.5z"/>
    <path fill="#000" d="M180.8 42.9c-2.6 2.6-3.5 8-1.3 8s5.1-4.2 6.2-6.1c-.6 2.7-1.2 5.4-2 8.1-5.4 6-9.9 12.6-13.6 20.6-1.8 4-3.6 7.1-1.1 10.8.2.2.3.3.5.3l.4-.2c5.7-4 12.4-22.7 14.4-28.7l.7-2.2c3-3.3 6.3-6.3 10.2-9.6.5-.5.2-1.2-.4-1.2l-.5.2c-3 2.6-5.8 5-8.4 7.7 1-3.6 2-7.8.6-8.5h-.3c-.2 0-.3 0-.5.2-2 2.3-2.8 6.2-6.2 7.1 0-1.6 1.1-4.5 2.2-5.6.5-.5.1-1.1-.4-1.1-.2 0-.3 0-.5.2zM175 74.4c-1.2 2.5-3 6.8-5.4 8.5-2.1-3.2 3.2-12.2 4.7-14.7 2.8-4.6 5.3-8.5 8.2-12-2 6.3-4.6 12.3-7.5 18.2z"/>
    <path fill="#000" d="M194.4 42.6c-.6 1.6-2.3 5.5-1.7 7.3l.5.5h.2c2 0 2.5-6 6.1-7.7.6 2 1.8 3 3.7 3a10 10 0 0 0 4.6-1.5c.7-.5.5-1.4-.1-1.4a1 1 0 0 0-.4.1c-2 1-3.2 1.7-4.2 1.7-1.3 0-2-1-3-3.3 0-.2-.2-.3-.3-.3l-.5.2c-2.5 1.6-4 3.5-5.2 7 .2-1.4 1.2-4 1.7-5.3 0-.5-.3-.8-.6-.8s-.6.2-.8.5z"/>
    <path fill="#000" d="M210.3 39.4c-3 1.2-6.5 10.7-2 10.7 2.4 0 6.2-4.8 7.8-6.2.5-.5.3-1.2-.1-1.2l-.7.2c-.8.7-5.3 5.8-7 5.8l-.4-.2c-.6-.5-.5-1.8-.1-3.2 3.6-1 5.6-6.1 3.4-6.1-.3 0-.5 0-.9.2zm.1 1.4c0 .8-.4 2.1-2 2.9.6-1.3 1.3-2.5 2-3z"/>
</svg>
