<svg xmlns="http://www.w3.org/2000/svg" viewBox="0 0 1144 128">
    <path fill="currentColor" d="M47.6 3.6v118.3c7 0 13-1.2 18.3-3.7 5.2-2.7 9.7-6.2 13.2-10.6 3.6-4.4 6.3-9.6 8.1-15.4 2-6 2.9-12.3 2.9-19V3.6h5.2v69.6c0 7.4-1 14.4-3 21-2.1 6.4-5.2 12-9.2 17a44 44 0 0 1-35.5 15.7c-7.7 0-14.6-1.3-20.6-4a44.5 44.5 0 0 1-14.8-11.7c-4-5-7-10.6-9.2-17-2-6.6-3-13.6-3-21V3.6h47.6zM5.4 8.8v64.4c0 6.2.7 12.1 2.3 17.7a43.4 43.4 0 0 0 18.6 25.6c4.7 2.8 10 4.5 16.1 5.2V8.7h-37zM150.6 3.6v120.8h-45.1V3.6h45zm-40 5.2v110.4h34.6V8.8h-34.6zM212.8 66.6v52.6h34.5V66.6h-34.5zm0-57.8v52.6h34.5V8.8h-34.5zm86.8-5.2v5.2h-47v52.6h84v5.2h-84v52.6h84v5.2h-129V3.6h92zM382.8 3.6l60.7 52.3 1-52.3h5.5V127L349.5 39.1v85.3h-5.2V3.6h38.5zm-33.3 5.2V32l95 82.6-1-50.7-63.2-55.1h-30.8zM585.2 61.4v2.5a63.5 63.5 0 0 1-39 59 63.5 63.5 0 0 1-89-59 62.2 62.2 0 0 1 18.6-45.1A64.9 64.9 0 0 1 521.3 0c7.5 0 14.6 1.3 21.3 3.8A61.9 61.9 0 0 1 575 29.5c4 6 6.8 12.5 8.4 19.6l-5 1.7a56.7 56.7 0 0 0-7.7-18 57 57 0 0 0-29.7-24 57 57 0 0 0-42.6 1A60.1 60.1 0 0 0 467 41.2a57 57 0 0 0 0 45.7 61.7 61.7 0 0 0 12.6 18.7 61.7 61.7 0 0 0 18.8 12.6 57 57 0 0 0 22.9 4.6h3l3.3-.3V66.6h-49v-5.2h106.6zm-52.4 5.2v55.1a57.5 57.5 0 0 0 32.7-19.1 60.9 60.9 0 0 0 14.4-36h-47.1zM637.6 3.6v120.8h-45.2V3.6h45.2zm-40 5.2v110.4h34.6V8.8h-34.6zM769.2 66.6v52.6h34.5V66.6h-34.5zm0-57.8v52.6h34.5V8.8h-34.5zM856 3.6v5.2h-46.9v52.6h84v5.2h-84v52.6h84v5.2H764V3.6h92zM906 66.6v52.6h34.5V66.6h-34.6zm0-57.8v52.6h34.5V8.8h-34.6zm86.8-5.2v5.2h-47v52.6h84v5.2h-84v52.6h84v5.2h-129V3.6h92zM1115.9 3.6c4 0 7.6.5 11 1.6 3.4 1 6.4 2.7 8.9 4.8a23.7 23.7 0 0 1 8.2 18.4c0 4.1-.8 7.7-2.3 10.8a22.8 22.8 0 0 1-6 7.9c-2.4 2-5.4 3.6-8.9 4.6-3.3 1.1-7 1.6-11 1.6h-3.8l32 71.1h-47.6l-31-71h-22.8v71h-5.1V3.6h78.4zM1042.6 48h73.3c3.2 0 6.2-.4 9-1.3A20.5 20.5 0 0 0 1137 37c1.2-2.4 1.8-5.2 1.8-8.4 0-3.3-.6-6-1.8-8.4a17.2 17.2 0 0 0-5-6.3c-2-1.7-4.4-3-7.2-3.8-2.7-.8-5.7-1.2-9-1.2h-73.1V48zm28.5 5.3l28.9 66h36l-29.8-66h-35zM686.2 3.6L747 55.9 748 3.6h5.4V127L652.9 39.1v85.3h-5.2V3.6h38.5zM653 8.8V32l95.1 82.6-1-50.7-63.3-55.1H653z"/>
</svg>
