<?xml version="1.0" standalone="no"?>
<!DOCTYPE svg PUBLIC "-//W3C//DTD SVG 20010904//EN"
 "http://www.w3.org/TR/2001/REC-SVG-20010904/DTD/svg10.dtd">
<svg version="1.0" xmlns="http://www.w3.org/2000/svg"
 width="700.000000pt" height="700.000000pt" viewBox="0 0 700.000000 700.000000"
 preserveAspectRatio="xMidYMid meet">
<metadata>
Created by potrace 1.11, written by Peter Selinger 2001-2013
</metadata>
<g transform="translate(0.000000,700.000000) scale(0.100000,-0.100000)"
fill="#000000" stroke="none">
<path d="M3367 6994 c-1 -1 -49 -5 -107 -8 -58 -4 -117 -8 -130 -10 -14 -3
-50 -7 -80 -10 -51 -6 -128 -18 -190 -31 -14 -3 -41 -8 -60 -11 -145 -22 -536
-146 -697 -220 l-63 -29 73 -125 c65 -110 345 -594 400 -690 10 -19 71 -125
135 -235 63 -110 171 -297 240 -417 l124 -216 1507 -1 c1780 0 1576 2 1563
-13 -5 -7 -19 -29 -30 -48 -10 -19 -82 -143 -159 -275 -76 -132 -142 -247
-146 -255 -4 -8 -17 -31 -28 -50 -26 -43 -133 -228 -264 -455 -54 -93 -222
-384 -373 -645 -151 -261 -300 -519 -331 -573 -31 -54 -64 -113 -75 -130 -42
-73 -361 -626 -385 -668 -57 -102 -47 -104 -126 33 -38 67 -83 146 -100 174
-16 29 -51 90 -78 136 -67 117 -94 165 -132 228 -18 30 -44 75 -57 100 -14 25
-115 200 -225 390 -229 395 -705 1220 -802 1390 l-66 115 -418 0 c-229 0 -417
-4 -417 -8 0 -10 261 -466 291 -509 10 -15 19 -30 19 -33 0 -3 56 -101 123
-218 68 -117 195 -336 282 -487 174 -303 435 -755 803 -1390 132 -228 248
-431 259 -450 33 -58 250 -434 355 -613 54 -93 98 -170 98 -172 0 -2 26 -47
58 -102 32 -54 70 -118 84 -143 88 -159 122 -211 135 -206 7 3 39 12 71 20
144 38 383 128 562 214 270 128 595 344 815 541 115 104 340 340 384 403 8 13
24 32 34 43 10 11 55 72 100 135 254 355 435 744 542 1163 24 95 46 188 49
207 3 19 10 62 16 95 6 33 13 83 16 110 3 28 7 61 10 75 22 134 22 626 0 760
-3 14 -7 48 -10 75 -3 28 -8 64 -11 80 -3 17 -13 68 -21 115 -21 117 -58 263
-96 383 -17 56 -32 104 -33 107 -3 11 -18 49 -62 160 -57 142 -133 301 -190
398 -24 41 -43 76 -43 79 0 10 -174 268 -224 333 -162 209 -317 372 -532 561
-303 265 -744 511 -1165 649 -117 38 -361 102 -439 115 -19 3 -60 10 -90 15
-63 11 -201 27 -310 36 -69 5 -378 12 -383 8z"/>
<path d="M1525 6386 c-147 -108 -232 -172 -241 -180 -6 -6 -38 -33 -70 -61
-89 -75 -274 -258 -346 -343 -34 -41 -70 -82 -78 -92 -250 -295 -491 -740
-620 -1145 -36 -112 -67 -223 -76 -270 -2 -11 -6 -31 -9 -45 -8 -34 -12 -55
-24 -125 -6 -33 -13 -69 -15 -80 -2 -12 -7 -45 -11 -75 -3 -30 -8 -68 -10 -85
-25 -186 -25 -570 1 -778 43 -354 139 -712 269 -1002 51 -115 109 -231 163
-325 30 -52 60 -104 66 -115 33 -59 247 -359 266 -375 4 -3 35 -39 70 -80 319
-375 789 -720 1250 -917 163 -69 408 -154 518 -178 27 -6 206 -47 217 -49 6
-2 30 -6 55 -10 25 -4 54 -9 65 -11 11 -2 45 -6 75 -10 30 -4 66 -9 80 -11 85
-14 430 -22 598 -14 51 3 62 6 57 19 -3 8 -83 148 -177 310 -94 163 -182 316
-196 341 -14 25 -28 50 -32 55 -4 6 -17 26 -27 45 -11 19 -64 112 -118 205
-54 94 -107 186 -118 205 -11 19 -57 99 -103 178 -46 79 -84 145 -84 146 0 2
-17 33 -38 67 -22 35 -50 84 -64 109 -32 57 -195 340 -207 360 -6 8 -34 58
-64 110 -58 101 -283 491 -645 1117 -122 210 -232 402 -245 425 -13 24 -64
111 -112 193 -48 83 -97 168 -110 190 -12 22 -45 80 -74 128 -28 49 -51 93
-51 98 0 5 -4 9 -10 9 -5 0 -10 4 -10 9 0 5 -63 119 -141 252 -78 134 -155
269 -171 299 -17 30 -37 64 -44 75 -8 11 -14 24 -14 30 0 7 236 9 730 8 l731
-1 -24 41 c-14 23 -34 58 -44 77 -11 19 -146 253 -300 520 -154 267 -290 502
-301 522 -57 102 -145 249 -151 252 -3 2 -19 -6 -36 -18z"/>
<path d="M3330 4440 c0 -3 4 -10 9 -15 5 -6 20 -30 34 -55 14 -25 123 -214
242 -420 120 -206 229 -395 243 -420 14 -25 90 -157 170 -295 80 -137 157
-271 171 -297 14 -27 28 -48 31 -48 3 0 117 195 254 433 137 237 271 468 296
512 82 138 350 605 350 608 0 2 -405 3 -900 3 -495 0 -900 -3 -900 -6z"/>
</g>
</svg>
